<svg width="27" height="26" viewBox="0 0 27 26" fill="none" xmlns="http://www.w3.org/2000/svg">
<path d="M13.1282 6.3319C11.8101 6.3319 10.5215 6.72279 9.42545 7.45513C8.32942 8.18747 7.47517 9.22838 6.97073 10.4462C6.46628 11.6641 6.33429 13.0041 6.59146 14.297C6.84862 15.5899 7.48339 16.7774 8.41549 17.7095C9.34758 18.6416 10.5351 19.2764 11.828 19.5335C13.1209 19.7907 14.4609 19.6587 15.6788 19.1543C16.8966 18.6498 17.9375 17.7956 18.6699 16.6995C19.4022 15.6035 19.7931 14.3149 19.7931 12.9968C19.7945 12.1211 19.6231 11.2538 19.2887 10.4445C18.9542 9.63527 18.4634 8.89998 17.8442 8.28081C17.225 7.66164 16.4897 7.17076 15.6805 6.83633C14.8712 6.50189 14.0039 6.33047 13.1282 6.3319ZM13.1282 17.3293C12.2716 17.3293 11.4343 17.0753 10.722 16.5994C10.0098 16.1235 9.45464 15.447 9.12683 14.6556C8.79901 13.8642 8.71324 12.9934 8.88036 12.1532C9.04748 11.3131 9.45998 10.5414 10.0657 9.93564C10.6714 9.32992 11.4431 8.91743 12.2833 8.75031C13.1234 8.58319 13.9943 8.66896 14.7857 8.99677C15.5771 9.32458 16.2535 9.87971 16.7294 10.592C17.2053 11.3042 17.4594 12.1416 17.4594 12.9982C17.4569 14.1461 16.9998 15.2463 16.1881 16.058C15.3764 16.8697 14.2762 17.3268 13.1282 17.3293ZM21.6201 6.05976C21.6201 6.36714 21.529 6.66762 21.3582 6.9232C21.1874 7.17878 20.9447 7.37797 20.6607 7.4956C20.3767 7.61323 20.0642 7.64401 19.7628 7.58404C19.4613 7.52408 19.1844 7.37606 18.967 7.15871C18.7497 6.94136 18.6016 6.66443 18.5417 6.36296C18.4817 6.06148 18.5125 5.749 18.6301 5.46502C18.7477 5.18103 18.9469 4.93831 19.2025 4.76754C19.4581 4.59676 19.7586 4.50561 20.066 4.50561C20.2702 4.50514 20.4725 4.54501 20.6613 4.62295C20.85 4.70088 21.0216 4.81534 21.166 4.95975C21.3104 5.10416 21.4248 5.27568 21.5028 5.46445C21.5807 5.65322 21.6206 5.85553 21.6201 6.05976ZM26.0342 7.63773C25.9353 5.55519 25.4567 3.71086 23.9344 2.19136C22.412 0.671863 20.5698 0.196163 18.488 0.0914946C16.3419 -0.0304982 9.90951 -0.0304982 7.76345 0.0914946C5.68668 0.190388 3.84235 0.668976 2.31708 2.18486C0.79181 3.70075 0.321163 5.54941 0.216495 7.63123C0.0945018 9.7773 0.0945018 16.2097 0.216495 18.3558C0.315388 20.4383 0.793976 22.2826 2.31636 23.8021C3.83874 25.3216 5.68091 25.7973 7.76273 25.902C9.90879 26.024 16.3412 26.024 18.4873 25.902C20.5698 25.8031 22.4141 25.3245 23.9336 23.8021C25.4531 22.2798 25.9288 20.4376 26.0335 18.3558C26.1555 16.2097 26.1555 9.78307 26.0335 7.63701L26.0342 7.63773ZM23.2616 20.6592C23.041 21.2184 22.7079 21.7263 22.2828 22.1513C21.8577 22.5764 21.3499 22.9095 20.7907 23.1301C19.0799 23.8086 15.0159 23.652 13.1282 23.652C11.2406 23.652 7.17153 23.8029 5.4658 23.1301C4.90662 22.9095 4.39875 22.5764 3.9737 22.1513C3.54864 21.7263 3.21549 21.2184 2.9949 20.6592C2.31636 18.9484 2.473 14.8844 2.473 12.9968C2.473 11.1091 2.32213 7.04003 2.9949 5.3343C3.21549 4.77512 3.54864 4.26725 3.9737 3.8422C4.39875 3.41715 4.90662 3.08399 5.4658 2.8634C7.17658 2.18486 11.2406 2.3415 13.1282 2.3415C15.0159 2.3415 19.085 2.19064 20.7907 2.8634C21.3499 3.08399 21.8577 3.41715 22.2828 3.8422C22.7079 4.26725 23.041 4.77512 23.2616 5.3343C23.9401 7.04509 23.7835 11.1091 23.7835 12.9968C23.7835 14.8844 23.9401 18.9571 23.2616 20.6592Z" fill="black"/>
</svg>
